HIERARCHY
ROOT Hips
{
 OFFSET 0.000000 0.000000 0.000000
 CHANNELS 6 Xposition Yposition Zposition Yrotation Xrotation Zrotation
 JOINT Chest
 {
  OFFSET 0.000000 9.585900 0.002600
  CHANNELS 3 Yrotation Xrotation Zrotation
  JOINT Chest2
  {
   OFFSET 0.000000 9.601200 -0.005300
   CHANNELS 3 Yrotation Xrotation Zrotation
   JOINT Chest3
   {
    OFFSET 0.000000 9.561800 0.000000
    CHANNELS 3 Yrotation Xrotation Zrotation
    JOINT Chest4
    {
     OFFSET 0.000000 9.552100 0.000000
     CHANNELS 3 Yrotation Xrotation Zrotation
     JOINT Neck
     {
      OFFSET 0.000000 14.453000 0.000000
      CHANNELS 3 Yrotation Xrotation Zrotation
      JOINT Head
      {
       OFFSET 0.000000 8.936500 -0.011300
       CHANNELS 3 Yrotation Xrotation Zrotation
       End Site
       {
        OFFSET 0.000000 17.073600 -0.006000
       }
      }
     }
     JOINT RightCollar
     {
      OFFSET -2.921100 9.558500 0.000000
      CHANNELS 3 Yrotation Xrotation Zrotation
      JOINT RightShoulder
      {
       OFFSET -13.519700 0.000000 0.000000
       CHANNELS 3 Yrotation Xrotation Zrotation
       JOINT RightElbow
       {
        OFFSET 0.000000 -29.696600 0.000000
        CHANNELS 3 Yrotation Xrotation Zrotation
        JOINT RightWrist
        {
         OFFSET 0.000000 -24.004700 0.000000
         CHANNELS 3 Yrotation Xrotation Zrotation
         End Site
         {
          OFFSET 0.000000 -17.728500 0.000000
         }
        }
       }
      }
     }
     JOINT LeftCollar
     {
      OFFSET 2.921100 9.558500 0.000000
      CHANNELS 3 Yrotation Xrotation Zrotation
      JOINT LeftShoulder
      {
       OFFSET 13.519700 0.000000 0.000000
       CHANNELS 3 Yrotation Xrotation Zrotation
       JOINT LeftElbow
       {
        OFFSET 0.000000 -29.696600 0.000000
        CHANNELS 3 Yrotation Xrotation Zrotation
        JOINT LeftWrist
        {
         OFFSET 0.000000 -24.004700 0.000000
         CHANNELS 3 Yrotation Xrotation Zrotation
         End Site
         {
          OFFSET 0.000000 -17.728500 0.000000
         }
        }
       }
      }
     }
    }
   }
  }
 }
 JOINT RightHip
 {
  OFFSET -7.771700 -0.012900 -0.001300
  CHANNELS 3 Yrotation Xrotation Zrotation
  JOINT RightKnee
  {
   OFFSET 0.000000 -40.869800 0.001200
   CHANNELS 3 Yrotation Xrotation Zrotation
   JOINT RightAnkle
   {
    OFFSET 0.000000 -39.717900 0.002100
    CHANNELS 3 Yrotation Xrotation Zrotation
    JOINT RightToe
    {
     OFFSET 0.000000 -4.965400 11.033500
     CHANNELS 3 Yrotation Xrotation Zrotation
     End Site
     {
      OFFSET 0.000000 -1.423100 5.872300
     }
    }
   }
  }
 }
 JOINT LeftHip
 {
  OFFSET 7.771700 -0.012900 -0.001300
  CHANNELS 3 Yrotation Xrotation Zrotation
  JOINT LeftKnee
  {
   OFFSET 0.000000 -40.869800 0.001200
   CHANNELS 3 Yrotation Xrotation Zrotation
   JOINT LeftAnkle
   {
    OFFSET 0.000000 -39.717900 0.002100
    CHANNELS 3 Yrotation Xrotation Zrotation
    JOINT LeftToe
    {
     OFFSET 0.000000 -4.965400 11.033500
     CHANNELS 3 Yrotation Xrotation Zrotation
     End Site
     {
      OFFSET 0.000000 -1.423100 5.872300
     }
    }
   }
  }
 }
}
MOTION
Frames: 16
Frame Time: 0.008333
-43.993414 57.927580 12.276690 177.890661 -52.859037 -3.717118 3.177743 22.137710 3.409291 1.615779 12.645023 1.755796 2.096208 15.856694 2.270064 1.616198 12.671315 1.756896 0.826246 16.775780 4.340171 0.028085 -4.541548 7.735512 1.898506 2.881025 0.564422 -4.536033 -15.776055 -7.166858 -33.612432 -29.899792 86.871122 -2.788908 -9.793260 -9.498636 -9.496611 -0.116089 -0.667368 3.430940 -14.014879 8.748840 30.436799 -11.151334 -81.852599 5.303460 -6.736609 -8.618336 3.953123 -18.642784 -2.676314 -32.757625 72.861514 -36.425225 6.304377 -12.508553 11.791544 0.077652 0.141095 0.026463 -7.683208 -16.110578 5.324107 86.070530 81.003058 85.474247 1.078810 -21.309931 -18.885937 -0.063354 0.003616 -0.017211
-43.987900 57.928976 12.271086 177.891696 -52.869591 -3.719672 3.173497 22.102818 3.408338 1.617031 12.663895 1.757101 2.099329 15.853226 2.270930 1.615362 12.631849 1.753927 0.824124 16.836771 4.340031 0.029306 -4.565835 7.662615 1.888802 2.924513 0.564614 -4.521051 -15.764201 -7.169195 -33.614086 -30.129453 86.928100 -2.862930 -9.841129 -9.624248 -9.497967 -0.063064 -0.671232 3.429358 -14.039946 8.746124 30.420493 -11.153933 -81.805279 5.292995 -6.733318 -8.702434 3.938226 -18.628582 -2.664845 -32.720278 72.878124 -36.400382 6.311649 -12.588693 11.780299 0.052959 0.149250 0.027405 -7.680800 -16.099682 5.330945 86.067104 81.010077 85.469996 1.073233 -21.309622 -18.878193 -0.060542 0.001707 -0.021659
-43.984026 57.932361 12.263096 177.901840 -52.894231 -3.720110 3.163665 22.107616 3.399678 1.616113 12.659579 1.756919 2.099258 15.845688 2.270120 1.613378 12.629634 1.754629 0.821599 16.836942 4.310538 0.034048 -4.563326 7.606501 1.881215 2.920389 0.553743 -4.502780 -15.752373 -7.175405 -33.617780 -30.353906 86.981563 -2.930866 -9.890461 -9.754525 -9.488818 -0.061868 -0.665897 3.422153 -14.047911 8.738494 30.407029 -11.133654 -81.768530 5.264255 -6.737968 -8.770305 3.921127 -18.599417 -2.658728 -32.671863 72.914485 -36.367883 6.268029 -12.673354 11.775014 0.056894 0.154453 0.029436 -7.680225 -16.074437 5.320891 86.070564 81.012824 85.475882 1.076099 -21.307190 -18.877483 -0.061129 -0.002538 -0.024713
-43.979787 57.932800 12.256724 177.897736 -52.897070 -3.712588 3.161778 22.092136 3.393833 1.616209 12.666239 1.756966 2.098435 15.827047 2.268453 1.610295 12.626379 1.756387 0.819650 16.837024 4.278795 0.041995 -4.560625 7.542594 1.881154 2.940271 0.550645 -4.498715 -15.744084 -7.175140 -33.613075 -30.619941 87.030960 -3.020933 -9.932497 -9.874500 -9.466120 -0.099602 -0.655840 3.412168 -14.057860 8.733208 30.373978 -11.073547 -81.719365 5.238934 -6.748546 -8.833768 3.910922 -18.591024 -2.650704 -32.610448 72.946642 -36.321235 6.230011 -12.794093 11.770611 0.054090 0.197974 0.029918 -7.674864 -16.071397 5.318196 86.098376 81.016454 85.503942 1.080461 -21.312487 -18.875966 -0.063193 -0.002228 -0.027475
-43.975954 57.933685 12.249371 177.900062 -52.903295 -3.708282 3.155172 22.081907 3.386732 1.615489 12.672343 1.756080 2.093695 15.810047 2.267673 1.613993 12.629206 1.756285 0.811804 16.806214 4.217403 0.050586 -4.534338 7.501383 1.875408 2.937328 0.544555 -4.492731 -15.719929 -7.171907 -33.608553 -30.902318 87.077943 -3.096354 -9.969672 -9.996879 -9.459123 -0.091183 -0.656970 3.414566 -14.080998 8.732312 30.349738 -11.049656 -81.688968 5.233312 -6.756448 -8.870297 3.899156 -18.582525 -2.645380 -32.559589 72.977850 -36.292258 6.205576 -12.870560 11.777722 0.044471 0.211160 0.025449 -7.673135 -16.065192 5.311738 86.131952 81.012774 85.540954 1.076879 -21.316707 -18.879091 -0.062456 -0.004094 -0.028101
-43.972437 57.933807 12.242044 177.901563 -52.904307 -3.702032 3.147757 22.068396 3.378394 1.617473 12.664066 1.756888 2.092344 15.776562 2.267987 1.612442 12.677567 1.756567 0.811043 16.806622 4.208560 0.055889 -4.548689 7.433271 1.867800 2.919596 0.541801 -4.478845 -15.696603 -7.189843 -33.621500 -31.191575 87.135496 -3.162071 -10.003526 -10.119576 -9.453269 -0.098428 -0.655088 3.413784 -14.085204 8.730014 30.335239 -11.039322 -81.670487 5.224139 -6.762263 -8.902449 3.890206 -18.581054 -2.645677 -32.541429 73.007381 -36.288563 6.193368 -12.948280 11.778466 0.040562 0.210440 0.023596 -7.670599 -16.064602 5.304784 86.149433 81.014484 85.563162 1.077965 -21.319243 -18.883332 -0.061530 -0.005448 -0.027921
-43.968008 57.934328 12.234109 177.904630 -52.908492 -3.702904 3.144318 22.059309 3.379982 1.615308 12.638269 1.757476 2.092953 15.795227 2.266700 1.613128 12.665252 1.755695 0.806224 16.808191 4.171873 0.060236 -4.544891 7.361511 1.860271 2.926845 0.534160 -4.469363 -15.668036 -7.194894 -33.631878 -31.505290 87.179593 -3.223682 -10.046686 -10.244167 -9.445037 -0.112947 -0.649253 3.409462 -14.057498 8.721010 30.323764 -11.024452 -81.657609 5.196056 -6.771996 -8.945950 3.880225 -18.579851 -2.639906 -32.571401 73.033655 -36.324924 6.189607 -13.004377 11.773357 0.058083 0.175900 0.023826 -7.664172 -16.061108 5.309542 86.217841 81.008898 85.633943 1.060255 -21.329851 -18.876436 -0.062550 -0.006961 -0.030354
-43.964869 57.934929 12.225706 177.913420 -52.913660 -3.701149 3.137072 22.053015 3.376862 1.615292 12.632782 1.757689 2.088798 15.806111 2.263064 1.615039 12.638204 1.757345 0.802869 16.783656 4.092362 0.060010 -4.519122 7.298537 1.842762 2.917775 0.526418 -4.446646 -15.621668 -7.203277 -33.660184 -31.831162 87.233243 -3.271279 -10.083824 -10.386181 -9.443252 -0.094266 -0.651808 3.413064 -14.114705 8.721101 30.298808 -10.965862 -81.610641 5.147702 -6.777236 -8.994709 3.870639 -18.576652 -2.639254 -32.617346 73.058487 -36.381709 6.187970 -13.059527 11.773774 0.059347 0.177354 0.023205 -7.653666 -16.056507 5.309347 86.230655 81.017398 85.655489 1.044588 -21.335417 -18.872645 -0.055932 -0.010831 -0.027144
-43.961200 57.935046 12.217625 177.916900 -52.915436 -3.699255 3.134891 22.044218 3.377432 1.613730 12.635327 1.755759 2.093050 15.790411 2.267477 1.618239 12.612161 1.758393 0.789524 16.807737 4.047724 0.066149 -4.517329 7.220723 1.817094 2.940366 0.524327 -4.428975 -15.593189 -7.209649 -33.697166 -32.171334 87.292035 -3.300800 -10.108257 -10.544603 -9.444877 -0.068051 -0.651919 3.412536 -14.122100 8.712778 30.279533 -10.954365 -81.573631 5.157504 -6.777901 -9.020926 3.865541 -18.575033 -2.636493 -32.618782 73.089190 -36.392857 6.188577 -13.128692 11.765718 0.044606 0.190968 0.027638 -7.649986 -16.054225 5.306955 86.259702 81.018614 85.690274 1.045576 -21.339144 -18.876692 -0.051106 -0.014099 -0.026592
-43.958950 57.935294 12.209333 177.918762 -52.918643 -3.688689 3.131297 22.038707 3.370125 1.611416 12.636475 1.753113 2.094937 15.756029 2.271114 1.613320 12.647914 1.755688 0.787762 16.790437 4.004079 0.076505 -4.516120 7.138488 1.808659 2.931779 0.526642 -4.406092 -15.577218 -7.229334 -33.740407 -32.517955 87.339777 -3.312084 -10.138849 -10.697423 -9.433202 -0.086106 -0.642090 3.409442 -14.123778 8.703030 30.267681 -10.935242 -81.555326 5.120045 -6.769943 -9.021491 3.867269 -18.570987 -2.644297 -32.598529 73.120902 -36.378842 6.162628 -13.186992 11.757911 0.040974 0.158138 0.030161 -7.639513 -16.051662 5.299073 86.303231 81.025726 85.736495 1.041744 -21.347587 -18.871844 -0.043976 -0.016847 -0.025162
-43.955659 57.935068 12.201695 177.922060 -52.918005 -3.687138 3.129594 22.030781 3.371742 1.609643 12.630207 1.751099 2.093121 15.752311 2.273376 1.610111 12.639964 1.751761 0.788383 16.794842 3.960736 0.089597 -4.516076 7.051650 1.806242 2.952477 0.528135 -4.387365 -15.572430 -7.247620 -33.772796 -32.872153 87.370925 -3.304007 -10.175880 -10.849922 -9.417261 -0.083135 -0.636247 3.398819 -14.113310 8.693300 30.263641 -10.927909 -81.542898 5.050658 -6.754950 -8.977792 3.864029 -18.568317 -2.638326 -32.601275 73.132234 -36.388697 6.151701 -13.234594 11.751237 0.034162 0.169864 0.035640 -7.632489 -16.050002 5.297140 86.309644 81.033308 85.746921 1.051469 -21.355076 -18.872530 -0.052060 -0.013477 -0.024002
-43.956138 57.935710 12.193232 177.935821 -52.924604 -3.673023 3.113000 22.032542 3.350232 1.609280 12.623913 1.753141 2.089151 15.750944 2.271874 1.609614 12.614879 1.757413 0.784764 16.816690 3.906941 0.093969 -4.508137 7.030345 1.795220 2.974615 0.521750 -4.357766 -15.554765 -7.266863 -33.804664 -33.241055 87.397147 -3.286252 -10.211389 -11.020634 -9.400254 -0.081462 -0.630524 3.387007 -14.087102 8.673484 30.252019 -10.943169 -81.511735 5.069972 -6.754548 -8.994714 3.869103 -18.559080 -2.652601 -32.617100 73.169499 -36.422512 6.130621 -13.298447 11.758288 0.029085 0.156862 0.037290 -7.619455 -16.042153 5.268573 86.288758 81.038614 85.736447 1.041479 -21.366785 -18.865761 -0.048361 -0.009843 -0.024261
-43.952656 57.935043 12.186504 177.937136 -52.921354 -3.675183 3.112736 22.021319 3.355698 1.608101 12.623762 1.754006 2.086073 15.745080 2.270718 1.607861 12.612186 1.757327 0.784958 16.825382 3.880212 0.121348 -4.521958 6.879989 1.795657 2.972506 0.515709 -4.314927 -15.535409 -7.297405 -33.862447 -33.616442 87.426281 -3.264756 -10.248491 -11.208984 -9.396765 -0.070081 -0.634325 3.388546 -14.103194 8.677979 30.239036 -10.931958 -81.497065 5.048224 -6.749452 -8.958503 3.878338 -18.561219 -2.631218 -32.690380 73.170115 -36.497809 6.123970 -13.338654 11.757486 0.040253 0.146737 0.041240 -7.613523 -16.044039 5.269636 86.292897 81.043735 85.747741 1.041313 -21.373044 -18.863776 -0.051384 -0.008367 -0.025217
-43.950539 57.934712 12.179677 177.934491 -52.921907 -3.668387 3.112186 22.015242 3.354844 1.607108 12.619157 1.751914 2.084522 15.749275 2.271124 1.607724 12.602513 1.760774 0.782877 16.833746 3.850597 0.150890 -4.533828 6.724886 1.795899 2.970716 0.511170 -4.309420 -15.516169 -7.304211 -33.873845 -34.013993 87.435493 -3.235439 -10.288902 -11.410102 -9.391524 -0.079599 -0.634973 3.390186 -14.095870 8.679803 30.228585 -10.915843 -81.492571 5.022462 -6.735764 -8.909862 3.887221 -18.558036 -2.619705 -32.737979 73.173923 -36.551195 6.122830 -13.396973 11.745526 0.047827 0.122678 0.048188 -7.603012 -16.042133 5.264277 86.284730 81.047420 85.747118 1.044973 -21.375731 -18.865797 -0.048676 -0.008491 -0.024056
-43.950338 57.934258 12.173020 177.939299 -52.922920 -3.658694 3.103675 22.014878 3.342055 1.605755 12.610019 1.757265 2.082490 15.753787 2.267600 1.611277 12.595281 1.764685 0.778847 16.832827 3.798426 0.170494 -4.531787 6.622773 1.791009 2.966311 0.506339 -4.282170 -15.491791 -7.320565 -33.894779 -34.423891 87.440014 -3.197258 -10.331765 -11.619507 -9.389693 -0.079554 -0.634708 3.386766 -14.094470 8.681599 30.225301 -10.920813 -81.475616 4.979684 -6.709511 -8.822111 3.890920 -18.555509 -2.625406 -32.736220 73.193977 -36.566637 6.121085 -13.440234 11.752236 0.039639 0.113110 0.046222 -7.598860 -16.040995 5.250830 86.279751 81.049138 85.744518 1.049149 -21.376827 -18.868006 -0.043309 -0.008823 -0.022252
-43.950399 57.933389 12.166967 177.944333 -52.921999 -3.650415 3.099299 22.007366 3.337686 1.608411 12.604349 1.764069 2.080124 15.748504 2.269927 1.605410 12.605053 1.762705 0.775148 16.825468 3.741457 0.186908 -4.525242 6.520245 1.780665 2.954371 0.501086 -4.238460 -15.470338 -7.350684 -33.918425 -34.839321 87.434790 -3.151451 -10.372137 -11.834982 -9.388461 -0.087136 -0.636992 3.386386 -14.097100 8.703115 30.203593 -10.943296 -81.431987 4.999013 -6.701259 -8.809444 3.893271 -18.555826 -2.630966 -32.750751 73.209924 -36.597429 6.128091 -13.477109 11.759461 0.032089 0.100458 0.041911 -7.597247 -16.042704 5.239615 86.286523 81.052056 85.752090 1.049919 -21.378860 -18.868919 -0.036945 -0.009600 -0.020261
